<svg width="119" height="48" viewBox="0 0 119 48" fill="none" xmlns="http://www.w3.org/2000/svg">
<path fill-rule="evenodd" clip-rule="evenodd" d="M90.6883 25.7624V47.4049H81.0404V25.7624H70.8711V16.8969H101.379V25.7624H90.6883Z" fill="black"/>
<path fill-rule="evenodd" clip-rule="evenodd" d="M12.0289 47.4049L0 16.8969H9.93689L18.0433 38.0178L26.6727 16.8969H36.6096L23.5347 47.4049H12.0289Z" fill="black"/>
<path fill-rule="evenodd" clip-rule="evenodd" d="M60.8395 47.4048H38.0497V38.6502H60.8395C61.3695 38.6502 61.8995 38.1196 61.8995 37.589C61.8995 37.0584 61.3695 36.5279 60.8395 36.5279H45.7346C40.1696 36.5279 35.9297 32.0179 35.9297 26.7121C35.9297 21.141 40.4346 16.8964 45.7346 16.8964H67.9944V25.6509H45.7346C45.2046 25.6509 44.6746 26.1815 44.6746 26.7121C44.6746 27.2427 45.2046 27.7733 45.7346 27.7733H60.8395C66.4044 27.7733 70.6444 32.2832 70.6444 37.589C70.6444 42.8948 66.4044 47.4048 60.8395 47.4048Z" fill="black"/>
<path fill-rule="evenodd" clip-rule="evenodd" d="M109.879 8.40824V16.8165H118.278V0H101.48V8.40824H109.879Z" fill="#ED4629"/>
</svg>
